<?xml version="1.0" encoding="UTF-8"?>
<svg xmlns="http://www.w3.org/2000/svg" version="1.1" viewBox="0 0 595.28 141.73">
  <defs>
    <style>
      .cls-1, .cls-2 {
        fill: #1b52a1;
      }

      .cls-3, .cls-4 {
        fill: #575656;
      }

      .cls-2, .cls-4 {
        fill-rule: evenodd;
      }
    </style>
  </defs>
  <!-- Generator: Adobe Illustrator 28.6.0, SVG Export Plug-In . SVG Version: 1.2.0 Build 709)  -->
  <g>
    <g id="Layer_1">
      <path class="cls-2" d="M131.36,36.52h9.86c1.95-.06,3.63.29,5.03,1.04,1.4.75,2.15,2.24,2.21,4.46-.04,2-.65,3.45-1.84,4.36-1.18.91-2.72,1.35-4.6,1.34h-10.66v-11.2ZM120.85,76.19h23.18c2.93,0,5.67-.47,8.22-1.44,2.55-.96,4.62-2.47,6.21-4.51,1.59-2.05,2.41-4.69,2.46-7.92,0-3.01-.74-5.57-2.2-7.67-1.47-2.1-3.65-3.59-6.57-4.46,2.09-1,3.69-2.33,4.8-3.99,1.12-1.66,1.68-3.66,1.69-6-.07-4.39-1.48-7.48-4.22-9.27-2.74-1.79-6.43-2.65-11.06-2.59h-22.51v47.84ZM131.36,54.88h11.47c2.28-.02,4.11.51,5.47,1.58,1.37,1.08,2.07,2.83,2.11,5.26-.06,2.43-.84,4.11-2.34,5.01-1.48.91-3.3,1.34-5.44,1.29h-11.27v-13.14Z"/>
      <path class="cls-2" d="M178.54,36.52h11.53c2.35-.01,4.15.51,5.38,1.58,1.23,1.07,1.85,2.75,1.86,5.05,0,2.4-.63,4.14-1.86,5.23-1.24,1.09-3.03,1.62-5.38,1.61h-11.53v-13.48ZM168.03,76.19h10.51v-18.7h10.53c2.61-.02,4.5.56,5.7,1.73,1.19,1.17,1.95,3,2.28,5.5.22,1.96.41,3.97.56,6.03.15,2.06.52,3.88,1.12,5.43h10.52c-.61-.93-1.05-2.08-1.31-3.46-.26-1.38-.43-2.77-.51-4.19-.07-1.41-.14-2.64-.19-3.68-.11-2.49-.67-4.79-1.67-6.9-1-2.11-2.77-3.53-5.29-4.29v-.13c2.63-1.09,4.55-2.65,5.77-4.69,1.21-2.04,1.81-4.48,1.79-7.31-.05-3.72-1.3-6.82-3.78-9.31-2.47-2.49-5.88-3.79-10.22-3.88h-25.8v47.84Z"/>
      <rect class="cls-1" x="216.45" y="28.35" width="10.52" height="47.84"/>
      <polygon class="cls-2" points="246.89 76.19 257.4 76.19 257.4 37.19 271.74 37.19 271.74 28.35 232.54 28.35 232.54 37.19 246.89 37.19 246.89 76.19"/>
      <rect class="cls-1" x="277.23" y="28.35" width="10.51" height="47.84"/>
      <path class="cls-2" d="M294.05,60.31c.01,3.92.97,7.14,2.87,9.66,1.89,2.51,4.39,4.37,7.48,5.57,3.09,1.2,6.43,1.8,10.01,1.79,6.52-.09,11.47-1.55,14.83-4.38,3.37-2.83,5.05-6.48,5.07-10.96-.11-3.58-1.09-6.32-2.91-8.25-1.82-1.92-3.85-3.29-6.06-4.11-2.22-.81-3.96-1.34-5.23-1.59-3.96-.99-6.97-1.8-9.04-2.43-2.07-.63-3.47-1.29-4.2-1.98-.74-.7-1.09-1.64-1.04-2.84.09-1.98.88-3.39,2.36-4.22,1.48-.83,3.11-1.23,4.88-1.21,2.57-.06,4.74.43,6.49,1.46,1.75,1.03,2.74,2.96,2.97,5.79h10.18c-.06-3.67-.97-6.64-2.75-8.91-1.78-2.27-4.12-3.92-7.01-4.96-2.89-1.04-6.02-1.55-9.41-1.54-2.95,0-5.77.52-8.48,1.58-2.71,1.05-4.94,2.65-6.7,4.79-1.75,2.14-2.65,4.84-2.71,8.1.04,2.96.75,5.33,2.12,7.1,1.37,1.77,3.13,3.16,5.29,4.14,2.16.99,4.44,1.77,6.86,2.36,2.39.59,4.66,1.17,6.81,1.74,2.15.57,3.91,1.32,5.28,2.25,1.37.93,2.07,2.24,2.12,3.92-.04,1.62-.58,2.86-1.6,3.72-1.01.87-2.23,1.47-3.67,1.79-1.43.32-2.78.47-4.05.46-2.9.03-5.38-.65-7.41-2.04-2.04-1.39-3.1-3.65-3.18-6.81h-10.18Z"/>
      <polygon class="cls-2" points="340.5 76.19 351.01 76.19 351.01 55.55 370.39 55.55 370.39 76.19 380.9 76.19 380.9 28.35 370.39 28.35 370.39 46.71 351.01 46.71 351.01 28.35 340.5 28.35 340.5 76.19"/>
      <path class="cls-2" d="M405.75,60.31c0,3.92.97,7.14,2.87,9.66,1.9,2.51,4.39,4.37,7.48,5.57,3.09,1.2,6.43,1.8,10.01,1.79,6.52-.09,11.46-1.55,14.83-4.38,3.37-2.83,5.06-6.48,5.08-10.96-.11-3.58-1.08-6.32-2.91-8.25-1.82-1.92-3.84-3.29-6.06-4.11-2.22-.81-3.96-1.34-5.23-1.59-3.96-.99-6.97-1.8-9.04-2.43-2.07-.63-3.47-1.29-4.21-1.98-.73-.7-1.07-1.64-1.03-2.84.09-1.98.88-3.39,2.36-4.22,1.48-.83,3.11-1.23,4.88-1.21,2.57-.06,4.73.43,6.49,1.46,1.74,1.03,2.74,2.96,2.96,5.79h10.18c-.06-3.67-.97-6.64-2.75-8.91-1.78-2.27-4.12-3.92-7.01-4.96-2.89-1.04-6.02-1.55-9.41-1.54-2.94,0-5.77.52-8.48,1.58-2.71,1.05-4.94,2.65-6.69,4.79-1.75,2.14-2.65,4.84-2.71,8.1.04,2.96.75,5.33,2.12,7.1,1.37,1.77,3.13,3.16,5.29,4.14,2.16.99,4.44,1.77,6.86,2.36,2.39.59,4.66,1.17,6.82,1.74,2.15.57,3.91,1.32,5.28,2.25,1.37.93,2.07,2.24,2.12,3.92-.04,1.62-.58,2.86-1.59,3.72-1.02.87-2.24,1.47-3.67,1.79-1.42.32-2.78.47-4.05.46-2.91.03-5.38-.65-7.41-2.04-2.04-1.39-3.1-3.65-3.19-6.81h-10.18Z"/>
      <rect class="cls-1" x="452.19" y="28.35" width="10.52" height="47.84"/>
      <path class="cls-2" d="M482.55,37.19h7.51c5.15.06,8.76,1.49,10.83,4.29,2.07,2.8,3.06,6.65,2.99,11.53-.04,3.51-.62,6.32-1.74,8.43-1.12,2.11-2.58,3.62-4.39,4.55-1.8.93-3.74,1.38-5.8,1.37h-9.39v-30.17ZM472.03,76.19h20.64c4.87-.04,8.91-1.11,12.12-3.19,3.22-2.08,5.62-4.94,7.21-8.56,1.59-3.63,2.38-7.77,2.38-12.44-.04-5.3-.99-9.69-2.87-13.2-1.87-3.5-4.44-6.12-7.7-7.86-3.25-1.74-6.97-2.6-11.14-2.6h-20.64v47.84Z"/>
      <polygon class="cls-2" points="521.71 76.19 558.02 76.19 558.02 67.35 532.23 67.35 532.23 55.62 555.41 55.62 555.41 47.45 532.23 47.45 532.23 37.19 558.05 37.19 558.04 28.35 521.71 28.35 521.71 76.19"/>
      <path class="cls-2" d="M43.96,25.46c0-8.28,14.1-14.99,31.48-14.99s31.48,6.71,31.48,14.99-14.1,14.99-31.48,14.99-31.48-6.71-31.48-14.99"/>
      <path class="cls-2" d="M21.22,56.32c0-6.62,11.27-11.99,25.18-11.99s25.18,5.37,25.18,11.99-11.28,11.99-25.18,11.99-25.18-5.37-25.18-11.99"/>
      <path class="cls-2" d="M59.48,80.19c0-4.97,8.46-8.99,18.89-8.99s18.89,4.02,18.89,8.99-8.46,8.99-18.89,8.99-18.89-4.02-18.89-8.99"/>
      <polygon class="cls-4" points="120.58 102.89 120.58 88.12 130.38 88.12 130.38 89.31 121.98 89.31 121.98 94.65 129.57 94.65 129.57 95.84 121.98 95.84 121.98 101.7 130.59 101.7 130.59 102.89 120.58 102.89"/>
      <path class="cls-4" d="M154.13,88.12h1.23v14.77h-1.23v-1.87h-.04c-.18.36-.41.67-.69.94-.28.26-.58.48-.92.66-.33.18-.67.31-1.02.41-.36.09-.71.14-1.05.14-.86,0-1.59-.14-2.19-.43-.6-.29-1.09-.68-1.49-1.17-.38-.51-.66-1.1-.84-1.79-.18-.68-.26-1.41-.26-2.19,0-.74.09-1.45.28-2.13.19-.68.48-1.28.86-1.78.39-.52.89-.93,1.48-1.23.6-.31,1.3-.47,2.1-.47.75,0,1.47.17,2.15.51.7.33,1.24.82,1.64,1.48v-5.85ZM154.13,97.54c0-.6-.08-1.17-.24-1.7-.17-.55-.4-1.02-.72-1.42-.3-.41-.67-.74-1.12-.97-.44-.24-.94-.37-1.5-.37-.64,0-1.2.13-1.65.39-.47.24-.85.59-1.15,1.02-.3.44-.52.95-.65,1.54-.14.57-.19,1.2-.17,1.87,0,.67.09,1.27.27,1.78.19.51.45.94.78,1.29.33.36.71.63,1.15.82.44.18.92.27,1.43.27.57,0,1.09-.11,1.54-.35.45-.24.82-.55,1.13-.94.3-.41.52-.89.68-1.44.16-.56.24-1.16.24-1.8Z"/>
      <path class="cls-4" d="M178.68,92.27h1.23v10.62h-1.23v-1.48c-.16.19-.35.39-.56.6-.2.21-.44.4-.71.58-.26.16-.57.3-.92.41-.35.12-.77.18-1.23.18-.71,0-1.3-.1-1.78-.29-.48-.2-.87-.48-1.17-.84-.29-.35-.5-.77-.64-1.23-.12-.48-.19-1-.19-1.56v-7h1.23v6.97c0,.92.21,1.62.64,2.11.43.48,1.12.72,2.09.72.5,0,.96-.09,1.35-.29.41-.2.75-.48,1.03-.84.27-.36.48-.78.63-1.27.15-.49.23-1.04.23-1.63v-5.78Z"/>
      <path class="cls-4" d="M203.43,95.61c-.22-.79-.6-1.41-1.12-1.84-.54-.45-1.21-.68-2.03-.68-.63,0-1.17.13-1.62.39-.45.26-.82.61-1.11,1.05-.29.42-.5.91-.64,1.46-.13.53-.2,1.07-.2,1.62s.07,1.11.18,1.64c.14.54.35,1.01.63,1.44.3.42.66.77,1.11,1.02.45.25,1,.37,1.64.37.92,0,1.65-.25,2.19-.76.56-.5.91-1.21,1.07-2.09h1.31c-.11.59-.29,1.13-.53,1.62-.23.48-.54.9-.93,1.25-.36.34-.8.61-1.33.8-.51.19-1.11.29-1.78.29-.85,0-1.58-.14-2.19-.43-.62-.29-1.12-.68-1.51-1.17-.4-.51-.69-1.1-.88-1.79-.19-.69-.28-1.42-.28-2.2,0-.74.1-1.44.3-2.11.22-.68.53-1.29.94-1.81.42-.52.92-.93,1.52-1.23.62-.31,1.32-.47,2.11-.47,1.23,0,2.22.29,2.97.88.76.59,1.24,1.5,1.43,2.75h-1.25Z"/>
      <path class="cls-4" d="M225.21,96.7c.23-.03.51-.07.82-.12.33-.06.6-.13.8-.23.2-.1.33-.25.37-.48.05-.23.08-.44.08-.63,0-.63-.21-1.14-.62-1.54-.39-.41-1.07-.62-2.03-.62-.42,0-.81.04-1.16.12-.35.07-.67.2-.95.39-.26.18-.48.42-.66.74-.16.3-.27.69-.33,1.15h-1.25c.04-.63.18-1.17.43-1.6.24-.45.56-.81.94-1.09.4-.29.85-.49,1.35-.62.52-.13,1.07-.2,1.64-.2.54,0,1.03.06,1.5.18.48.11.89.29,1.23.55.35.25.63.58.82,1,.2.42.31.95.31,1.56v5.79c0,.48.08.79.25.92.18.12.53.09,1.04-.11v.97c-.09.03-.24.07-.43.12-.18.05-.36.08-.53.08-.19,0-.37-.02-.55-.06-.21-.03-.37-.09-.49-.19-.13-.1-.23-.23-.31-.37-.07-.15-.11-.31-.14-.48-.02-.17-.04-.36-.04-.55-.52.58-1.12,1.01-1.78,1.32-.67.3-1.4.45-2.17.45-.46,0-.92-.06-1.35-.18-.42-.12-.8-.32-1.13-.58-.33-.26-.59-.58-.78-.94-.19-.39-.29-.84-.29-1.35,0-1.81,1.24-2.87,3.71-3.2l1.7-.22ZM227.28,97.31c-.52.22-1.04.37-1.57.43-.54.07-1.07.12-1.6.16-.95.07-1.68.28-2.21.64-.52.36-.78.9-.78,1.63,0,.32.06.61.18.86.14.23.31.43.51.6.22.15.47.27.74.35.29.07.57.11.86.11.49,0,.97-.06,1.43-.19.46-.12.88-.31,1.23-.55.37-.27.66-.58.88-.97.22-.4.33-.86.33-1.4v-1.66Z"/>
      <path class="cls-4" d="M248.48,102.94c-.15.03-.34.07-.59.14-.24.07-.52.1-.82.1-.61,0-1.09-.15-1.41-.45-.31-.32-.47-.87-.47-1.66v-7.77h-1.49v-1.02h1.49v-2.96h1.23v2.96h1.99v1.02h-1.99v7.28c0,.26,0,.48.02.68.01.19.06.35.12.47.07.12.17.21.31.27.14.05.35.08.61.08.17,0,.33,0,.49-.04.18-.03.35-.06.51-.1v1Z"/>
      <path class="cls-4" d="M263.61,88.12h1.35v1.83h-1.35v-1.83ZM263.67,92.27h1.23v10.62h-1.23v-10.62Z"/>
      <path class="cls-4" d="M288.89,97.58c0-.63-.06-1.22-.2-1.77-.14-.55-.35-1.02-.64-1.42-.28-.41-.65-.73-1.1-.96-.45-.23-1-.35-1.66-.35s-1.19.13-1.66.39c-.45.24-.82.58-1.1,1-.29.41-.5.89-.63,1.44-.14.53-.21,1.09-.21,1.66,0,.66.08,1.26.23,1.83.16.55.39,1.02.69,1.41.3.39.68.71,1.13.92.45.22.97.33,1.56.33.64,0,1.19-.12,1.64-.37.46-.26.84-.6,1.12-1.02.29-.42.5-.9.64-1.44.14-.54.2-1.09.2-1.66M285.29,103.18c-.68-.01-1.32-.14-1.92-.37-.59-.23-1.11-.58-1.56-1.04-.44-.47-.78-1.04-1.04-1.75-.26-.7-.39-1.51-.39-2.44,0-.78.1-1.51.31-2.18.2-.69.51-1.28.92-1.79.41-.51.92-.9,1.53-1.19.62-.31,1.33-.45,2.15-.45s1.56.15,2.17.45c.61.28,1.12.68,1.53,1.19.41.49.71,1.08.91,1.76.2.69.3,1.42.3,2.2,0,.84-.11,1.61-.34,2.29-.23.69-.57,1.27-1,1.76-.42.49-.95.88-1.56,1.15-.6.26-1.27.39-2,.39Z"/>
      <path class="cls-4" d="M306.72,102.89h-1.22v-10.62h1.22v1.48c.49-.52,1-.94,1.52-1.27.53-.33,1.16-.49,1.9-.49.65,0,1.26.12,1.82.35.56.22,1.03.61,1.41,1.17.26.38.41.78.45,1.19.05.39.08.81.08,1.25v6.95h-1.23v-6.93c0-.96-.21-1.67-.64-2.15-.42-.48-1.13-.72-2.11-.72-.38,0-.74.06-1.04.19-.32.11-.6.25-.86.45-.25.19-.46.41-.64.66-.18.25-.31.5-.41.78-.12.34-.19.67-.22.98-.03.32-.04.66-.04,1.03v5.72Z"/>
      <path class="cls-4" d="M334.78,96.7c.23-.03.51-.07.82-.12.33-.06.6-.13.8-.23.2-.1.32-.25.36-.48.05-.23.08-.44.08-.63,0-.63-.21-1.14-.61-1.54-.4-.41-1.07-.62-2.03-.62-.42,0-.81.04-1.17.12-.35.07-.67.2-.94.39-.26.18-.49.42-.66.74-.17.3-.27.69-.33,1.15h-1.25c.04-.63.18-1.17.43-1.6.24-.45.56-.81.94-1.09.4-.29.85-.49,1.36-.62.52-.13,1.06-.2,1.63-.2.53,0,1.03.06,1.49.18.48.11.88.29,1.23.55.35.25.62.58.82,1,.21.42.31.95.31,1.56v5.79c0,.48.08.79.25.92.18.12.52.09,1.05-.11v.97c-.1.03-.24.07-.43.12-.18.05-.35.08-.53.08-.19,0-.38-.02-.55-.06-.21-.03-.37-.09-.49-.19-.12-.1-.23-.23-.31-.37-.07-.15-.12-.31-.15-.48-.02-.17-.04-.36-.04-.55-.52.58-1.12,1.01-1.78,1.32-.67.3-1.39.45-2.17.45-.47,0-.91-.06-1.36-.18-.42-.12-.8-.32-1.12-.58-.33-.26-.59-.58-.78-.94-.19-.39-.29-.84-.29-1.35,0-1.81,1.24-2.87,3.71-3.2l1.7-.22ZM336.85,97.31c-.52.22-1.04.37-1.57.43-.53.07-1.07.12-1.6.16-.95.07-1.68.28-2.21.64-.52.36-.78.9-.78,1.63,0,.32.06.61.18.86.14.23.31.43.51.6.22.15.46.27.74.35.29.07.57.11.86.11.49,0,.97-.06,1.43-.19.46-.12.87-.31,1.22-.55.37-.27.66-.58.88-.97.22-.4.33-.86.33-1.4v-1.66Z"/>
      <rect class="cls-3" x="354.52" y="88.12" width="1.23" height="14.77"/>
      <path class="cls-4" d="M391.41,98.48c.05.66.2,1.21.43,1.68.25.45.56.82.92,1.11.38.29.82.5,1.31.64.49.12,1.02.18,1.58.18.66,0,1.22-.08,1.7-.24.48-.16.87-.38,1.16-.66.3-.29.52-.62.66-.98.15-.37.23-.76.23-1.17,0-.58-.13-1.04-.39-1.4-.26-.36-.6-.64-1.03-.86-.41-.23-.89-.42-1.43-.55-.53-.14-1.08-.27-1.66-.39-.56-.14-1.11-.29-1.65-.47-.53-.18-1.01-.42-1.43-.72-.41-.3-.74-.68-1-1.15-.27-.48-.39-1.08-.39-1.81,0-.51.09-1,.3-1.47.22-.48.54-.91.94-1.28.42-.37.95-.66,1.58-.88.63-.22,1.35-.33,2.17-.33s1.55.11,2.17.35c.63.23,1.15.56,1.56.97.41.39.72.86.92,1.39.2.53.3,1.1.3,1.7h-1.33c0-.56-.1-1.04-.3-1.46-.19-.41-.46-.74-.8-1-.34-.26-.73-.45-1.16-.58-.44-.13-.89-.18-1.35-.18-.71,0-1.31.1-1.8.31-.48.19-.86.45-1.15.76-.29.31-.49.66-.6,1.05-.11.38-.13.76-.06,1.14.08.48.27.86.57,1.15.3.29.67.53,1.11.72.43.18.91.33,1.43.45.53.11,1.07.23,1.62.37.55.12,1.07.27,1.58.45.52.18.98.42,1.37.72.4.3.71.69.94,1.17.24.46.37,1.05.37,1.76,0,1.37-.47,2.43-1.41,3.18-.94.75-2.27,1.13-3.97,1.13-.76,0-1.48-.1-2.13-.31-.65-.19-1.22-.49-1.7-.88-.48-.41-.85-.91-1.13-1.5-.26-.6-.39-1.31-.39-2.11h1.35Z"/>
      <path class="cls-4" d="M416.95,97.86c0,.58.07,1.13.22,1.64.15.51.37.95.66,1.34.3.37.67.66,1.13.9.45.22.97.33,1.55.33.81,0,1.5-.21,2.07-.63.58-.42.96-1.03,1.15-1.81h1.38c-.15.51-.35.98-.59,1.42-.25.42-.56.8-.93,1.13-.37.31-.8.56-1.31.74-.5.17-1.09.27-1.76.27-.85,0-1.57-.14-2.19-.43-.61-.29-1.12-.68-1.51-1.17-.4-.51-.69-1.1-.88-1.77-.19-.68-.29-1.41-.29-2.19s.11-1.51.33-2.19c.23-.68.55-1.28.96-1.79.42-.52.93-.93,1.54-1.21.6-.3,1.29-.45,2.05-.45,1.46,0,2.61.51,3.44,1.52.83,1,1.24,2.45,1.23,4.37h-8.23ZM423.87,96.84c0-.52-.07-1.01-.23-1.46-.13-.47-.34-.86-.63-1.19-.27-.34-.62-.61-1.04-.8-.43-.2-.91-.31-1.46-.31s-1.03.1-1.45.31c-.41.21-.76.48-1.06.82-.29.34-.52.74-.7,1.19-.18.45-.29.93-.35,1.44h6.92Z"/>
      <path class="cls-4" d="M441.91,102.89h-1.23v-10.62h1.23v1.99h.04c.34-.85.78-1.44,1.31-1.76.54-.34,1.26-.51,2.15-.51v1.33c-.7-.02-1.27.1-1.72.33-.45.23-.81.55-1.08.94-.26.4-.44.87-.55,1.42-.1.53-.14,1.1-.14,1.68v5.21Z"/>
      <polygon class="cls-4" points="459.34 92.27 460.67 92.27 464.12 101.38 467.55 92.27 468.89 92.27 464.77 102.89 463.4 102.89 459.34 92.27"/>
      <path class="cls-4" d="M483.87,88.12h1.35v1.83h-1.35v-1.83ZM483.93,92.27h1.23v10.62h-1.23v-10.62Z"/>
      <path class="cls-4" d="M508.84,95.61c-.22-.79-.59-1.41-1.13-1.84-.53-.45-1.21-.68-2.03-.68-.63,0-1.17.13-1.62.39-.45.26-.82.61-1.11,1.05-.28.42-.5.91-.64,1.46-.13.53-.2,1.07-.2,1.62s.06,1.11.18,1.64c.14.54.35,1.01.64,1.44.29.42.65.77,1.11,1.02.45.25,1,.37,1.64.37.91,0,1.65-.25,2.19-.76.56-.5.91-1.21,1.06-2.09h1.31c-.11.59-.29,1.13-.53,1.62-.23.48-.54.9-.92,1.25-.37.34-.81.61-1.33.8-.52.19-1.12.29-1.78.29-.85,0-1.58-.14-2.19-.43-.61-.29-1.12-.68-1.52-1.17-.39-.51-.68-1.1-.88-1.79-.19-.69-.29-1.42-.29-2.2,0-.74.1-1.44.31-2.11.21-.68.53-1.29.94-1.81.41-.52.91-.93,1.51-1.23.61-.31,1.32-.47,2.11-.47,1.23,0,2.22.29,2.97.88.76.59,1.24,1.5,1.43,2.75h-1.25Z"/>
      <path class="cls-4" d="M526.51,97.86c0,.58.08,1.13.23,1.64.15.51.37.95.65,1.34.3.37.68.66,1.13.9.45.22.97.33,1.56.33.8,0,1.49-.21,2.06-.63.57-.42.95-1.03,1.15-1.81h1.37c-.15.51-.34.98-.59,1.42-.24.42-.55.8-.92,1.13-.37.31-.8.56-1.31.74-.51.17-1.09.27-1.76.27-.85,0-1.57-.14-2.19-.43-.61-.29-1.12-.68-1.52-1.17-.39-.51-.69-1.1-.88-1.77-.18-.68-.28-1.41-.28-2.19s.11-1.51.33-2.19c.23-.68.55-1.28.96-1.79.42-.52.94-.93,1.54-1.21.6-.3,1.28-.45,2.05-.45,1.46,0,2.61.51,3.44,1.52.83,1,1.24,2.45,1.23,4.37h-8.23ZM533.43,96.84c0-.52-.08-1.01-.22-1.46-.14-.47-.35-.86-.64-1.19-.27-.34-.62-.61-1.04-.8-.43-.2-.91-.31-1.46-.31s-1.04.1-1.45.31c-.41.21-.77.48-1.07.82-.29.34-.52.74-.7,1.19-.18.45-.3.93-.35,1.44h6.92Z"/>
      <path class="cls-4" d="M550.89,99.57c.19.92.53,1.57,1.02,1.95.51.37,1.22.55,2.15.55.45,0,.84-.05,1.17-.16.33-.11.59-.25.8-.43.22-.19.38-.4.49-.63.11-.23.16-.48.16-.74,0-.52-.17-.9-.51-1.15-.33-.26-.75-.46-1.25-.59-.51-.15-1.05-.27-1.64-.37-.59-.11-1.13-.27-1.63-.47-.51-.2-.92-.5-1.27-.88-.33-.38-.49-.92-.49-1.62,0-.89.33-1.61.97-2.17.66-.57,1.58-.86,2.76-.86s2.08.26,2.78.78c.72.5,1.16,1.36,1.31,2.56h-1.25c-.11-.82-.42-1.39-.95-1.72-.5-.34-1.14-.51-1.92-.51s-1.37.17-1.78.51c-.41.33-.61.76-.61,1.31,0,.48.16.85.49,1.11.34.24.76.45,1.27.61.5.15,1.05.29,1.63.41.59.12,1.13.3,1.64.54.51.22.92.52,1.25.9.34.38.51.92.51,1.6,0,.51-.11.96-.33,1.36-.22.38-.52.7-.9.96-.38.26-.84.45-1.37.57-.52.14-1.09.2-1.72.2s-1.18-.1-1.67-.29c-.48-.18-.89-.43-1.23-.76-.34-.33-.6-.71-.8-1.15-.19-.43-.3-.91-.32-1.41h1.24Z"/>
    </g>
  </g>
</svg>